<svg width="2036" height="1090" viewBox="0 0 2036 1090" fill="none" xmlns="http://www.w3.org/2000/svg">
<rect x="18" y="78" width="1987" height="1012" fill="white"/>
<path d="M287.988 560.96C112.453 524.93 44.1899 514.589 32 513.921V7.00574L2015.73 0C2018.95 166.637 2023.46 502.712 2015.73 513.921C2006.07 527.933 1938.45 573.47 1740.43 587.482C1542.4 601.493 1265.02 513.921 1086.31 513.921C907.603 513.921 507.406 605.997 287.988 560.96Z" fill="url(#paint0_linear_288_190)"/>
<path d="M1759.41 595.96C1937.41 559.93 2006.64 549.589 2019 548.921V42.0057L7.32703 35C4.06177 201.637 -0.509766 537.712 7.32703 548.921C17.123 562.933 85.6948 608.47 286.512 622.482C487.33 636.493 768.614 548.921 949.84 548.921C1131.07 548.921 1536.9 640.997 1759.41 595.96Z" fill="url(#paint1_linear_288_190)"/>
<path d="M935.784 551.198C676.922 440.357 206.069 484.674 3 520.687V15H2000.34C2027.25 215.408 2064.92 617.723 2000.34 623.725C1919.62 631.228 1980.34 482.673 1749.9 467.167C1519.46 451.662 1259.36 689.75 935.784 551.198Z" fill="url(#paint2_linear_288_190)"/>
<path d="M1085.06 654.198C1340.36 543.357 1804.73 587.674 2005 623.687V118H35.1654C8.62866 318.408 -28.5226 720.723 35.1654 726.725C114.775 734.228 54.8977 585.673 282.16 570.167C509.423 554.662 765.943 792.75 1085.06 654.198Z" fill="url(#paint3_linear_288_190)"/>
<path d="M899.596 520.208C443.408 564.63 143.729 542.052 0 534.215V117.006L2019 105V552.224C1978.97 570.733 2007.06 583.039 1877.85 552.224C1716.33 513.705 1469.83 464.68 899.596 520.208Z" fill="url(#paint4_linear_288_190)"/>
<path d="M750.489 543.466C456.532 527.067 139.246 524.301 3 524.967V24H2018V524.967C1996.77 519.967 1877.88 516.668 1572.17 543.466C1190.02 576.964 1117.93 563.965 750.489 543.466Z" fill="url(#paint5_linear_288_190)"/>
<path d="M932.208 678.261C932.17 666.304 932.024 644.472 931.883 629.744C931.647 604.901 931.526 602.663 930.22 598.788C927.908 591.927 920.838 579.354 916.114 573.703C908.821 564.978 905.185 555.779 901.878 537.685C900.917 532.426 899.971 527.608 899.775 526.979C899.527 526.182 899.895 525.744 900.987 525.536C902.419 525.261 902.398 525.227 900.746 525.143C898.038 525.003 894.698 520.892 894.687 517.684C894.682 516.289 893.763 512.534 892.646 509.341C891.528 506.148 890.61 503.124 890.605 502.619C890.6 502.115 892.21 503.161 894.183 504.944C896.156 506.727 903.613 513.33 910.754 519.617C917.894 525.904 924.813 532.184 926.128 533.573C931.952 539.72 938.764 540.648 947.529 536.487C956.648 532.158 961.706 526.077 960.69 520.663L960.268 518.414L965.993 518.058C973.807 517.57 978.918 515.25 983.809 509.97C988.621 504.775 989.676 501.585 989.676 492.229C989.676 486.267 989.884 484.749 990.806 483.985C992.065 482.939 995.445 482.874 1005.73 483.694C1013.1 484.282 1019.35 483.251 1024.67 480.569C1027.88 478.949 1027.75 478.923 1028.28 481.308C1028.52 482.417 1029.35 484.124 1030.12 485.1C1030.88 486.077 1031.4 486.956 1031.27 487.054C1031.13 487.151 1029.02 488.097 1026.57 489.154C1000.4 500.48 981.958 517.313 977.416 534.014C974.92 543.194 973.962 551.477 974.031 563.297C974.127 579.812 974.716 580.111 976.948 564.771C980.368 541.265 983.486 530.675 989.742 521.327C997.435 509.83 1010.73 500.954 1032.72 492.632C1037.42 490.855 1041.38 489.288 1041.53 489.15C1041.67 489.012 1040.82 487.799 1039.64 486.456C1036.88 483.309 1033.56 476.725 1033.01 473.304L1032.58 470.628L1028.67 472.207C1018.97 476.125 1002.56 476.996 996.314 473.925C992.172 471.887 986.018 466.293 983.895 462.638C982.054 459.469 981.135 455.49 981.776 453.47C982.282 451.878 988.275 448.617 999.601 443.769C1005.3 441.329 1008.63 439.439 1010.82 437.399C1015.72 432.833 1019.65 430.425 1030.09 425.586C1044.48 418.912 1049.66 417.443 1053.53 418.93C1054.92 419.461 1059.49 425.855 1064.2 433.866C1066.19 437.243 1074.46 449.997 1082.57 462.21C1096.73 483.525 1099.01 487.664 1099 492.005C1098.99 495.481 1087.65 517.543 1076.66 535.493C1065.88 553.084 1054.46 568.592 1041.3 583.501C1037.32 588.003 1034.11 592.25 1034.11 593.006C1034.1 593.757 1034.54 597.138 1035.09 600.519C1038.18 619.709 1045.67 672.151 1045.36 672.462C1045.07 672.758 1034.44 675.418 1014.96 680.071C1008.76 681.552 988.617 686.427 970.202 690.904C951.787 695.381 935.72 699.259 934.499 699.522L932.278 700L932.208 678.261ZM979.377 636.981C978.31 622.757 978.005 615.291 978.44 614.057C979.607 610.743 985.757 610.378 986.964 613.551C987.297 614.425 988.829 622.342 990.369 631.144C991.909 639.945 993.433 648.027 993.755 649.103L994.342 651.058L994.415 649.01C994.455 647.883 993.826 639.387 993.017 630.129C992.209 620.872 991.757 612.186 992.012 610.826C992.357 608.986 993.601 607.279 996.879 604.146C999.3 601.832 1001.17 599.83 1001.04 599.697C1000.91 599.565 998.037 600.382 994.659 601.513C984.783 604.82 979.968 605.272 968.453 603.97C963.027 603.356 958.048 602.693 957.391 602.494C954.818 601.719 956.421 603.578 961.149 606.853C970.084 613.043 970.716 613.927 972.261 622.374C972.879 625.754 974.899 635.321 976.748 643.633C978.598 651.945 980.135 659.014 980.165 659.341C980.197 659.669 980.385 659.519 980.589 659.006C980.793 658.494 980.247 648.583 979.377 636.981ZM934.498 529.64C930.576 528.155 919.185 519.457 911.442 512.035C907.305 508.07 901.106 502.611 897.666 499.905C891.001 494.66 887.842 490.58 886.489 485.466C884.014 476.113 891.162 467.208 902.663 465.316C906.556 464.676 908.412 465.789 914.194 472.229C918.926 477.499 945.342 507.16 949.909 512.331C952.082 514.791 952.227 515.243 951.944 518.656C951.714 521.427 951.139 522.948 949.609 524.838C945.91 529.406 939.368 531.485 934.498 529.64ZM963.369 512.138C957.468 510.643 954.99 508.378 932.03 483.503C907.275 456.683 907.857 457.385 907.302 453.683C906.623 449.157 907.519 443.648 909.603 439.538C912.49 433.845 919.57 430.121 927.495 430.127C936.068 430.133 943.515 436.41 954.63 452.996C958.481 458.743 965.266 467.531 970.084 473.012C979.985 484.274 981.632 487.448 981.673 495.34C981.698 500.662 980.095 505.214 977.298 507.741C973.426 511.242 967.371 513.153 963.369 512.138ZM979.252 472.29C976.681 469.567 972.363 464.376 969.656 460.754C959.308 446.908 953.62 439.351 948.493 432.633C942.199 424.387 940.358 420.059 940.304 413.384C940.255 407.672 941.636 404.54 946.059 400.302C951.829 394.774 958.822 392.5 965.822 393.877C970.489 394.794 975.305 397.324 977.62 400.073C979.627 402.457 995.508 428.822 998.41 434.588L1000.49 438.717L996.961 439.955C987.039 443.436 977.371 448.916 976.054 451.807C974.942 454.246 975.21 458.137 976.719 461.462C978.327 465.005 983.316 472.109 985.844 474.458C988.11 476.563 988.094 477.242 985.779 477.242C984.368 477.242 982.817 476.068 979.252 472.29ZM1004.18 430.998C1001.38 426.859 988.604 405.411 986.686 401.636C983.955 396.258 986.236 387.673 991.706 382.744C1001.46 373.953 1015.16 375.401 1023.23 386.075C1025.69 389.333 1039.27 416.974 1038.69 417.551C1038.55 417.69 1033.26 420.286 1026.93 423.32C1020.6 426.355 1013.49 430.214 1011.14 431.895L1006.85 434.954L1004.18 430.998Z" fill="white"/>
<defs>
<linearGradient id="paint0_linear_288_190" x1="1026" y1="0" x2="1026" y2="589" gradientUnits="userSpaceOnUse">
<stop stop-color="#DE4238"/>
<stop offset="1" stop-color="#DE4238" stop-opacity="0.15"/>
</linearGradient>
<linearGradient id="paint1_linear_288_190" x1="1011" y1="35" x2="1011" y2="624" gradientUnits="userSpaceOnUse">
<stop stop-color="#DE4238"/>
<stop offset="1" stop-color="#DE4238" stop-opacity="0.15"/>
</linearGradient>
<linearGradient id="paint2_linear_288_190" x1="1019.5" y1="15" x2="1019.5" y2="624" gradientUnits="userSpaceOnUse">
<stop stop-color="#DE4238"/>
<stop offset="1" stop-color="#DE4238" stop-opacity="0.15"/>
</linearGradient>
<linearGradient id="paint3_linear_288_190" x1="1002.5" y1="118" x2="1002.5" y2="727" gradientUnits="userSpaceOnUse">
<stop stop-color="#DE4238"/>
<stop offset="1" stop-color="#DE4238" stop-opacity="0.15"/>
</linearGradient>
<linearGradient id="paint4_linear_288_190" x1="1009.5" y1="105" x2="1009.5" y2="571" gradientUnits="userSpaceOnUse">
<stop stop-color="#DE4238"/>
<stop offset="1" stop-color="#DE4238" stop-opacity="0.15"/>
</linearGradient>
<linearGradient id="paint5_linear_288_190" x1="1010.5" y1="24" x2="1010.5" y2="564" gradientUnits="userSpaceOnUse">
<stop stop-color="#DE4238"/>
<stop offset="1" stop-color="#DE4238" stop-opacity="0.15"/>
</linearGradient>
</defs>
</svg>
