<svg width="36" height="35" viewBox="0 0 36 35" fill="none" xmlns="http://www.w3.org/2000/svg">
<path d="M33.5938 34.9875L20.5479 21.9417C19.5063 22.8292 18.3084 23.516 16.9542 24.0021C15.6 24.4882 14.2389 24.7312 12.8709 24.7312C9.53474 24.7312 6.71113 23.5764 4.40002 21.2667C2.08891 18.9556 0.93335 16.1326 0.93335 12.7979C0.93335 9.46319 2.08752 6.63889 4.39585 4.325C6.70557 2.00972 9.5278 0.852081 12.8625 0.852081C16.1986 0.852081 19.0236 2.00764 21.3375 4.31875C23.6514 6.62986 24.8083 9.45417 24.8083 12.7917C24.8083 14.2389 24.5521 15.6396 24.0396 16.9937C23.5257 18.3479 22.8521 19.5063 22.0188 20.4688L35.0646 33.5125L33.5938 34.9875ZM12.8709 22.6458C15.6347 22.6458 17.9688 21.6944 19.8729 19.7917C21.7757 17.8889 22.7271 15.5549 22.7271 12.7896C22.7271 10.0257 21.7757 7.69236 19.8729 5.78958C17.9702 3.8868 15.6368 2.93541 12.8729 2.93541C10.109 2.93541 7.77502 3.8868 5.87085 5.78958C3.96807 7.69236 3.01668 10.0257 3.01668 12.7896C3.01668 15.5535 3.96807 17.8868 5.87085 19.7896C7.77363 21.6924 10.107 22.6458 12.8709 22.6458Z" fill="#DE4238"/>
</svg>
