<svg width="122" height="122" viewBox="0 0 122 122" fill="none" xmlns="http://www.w3.org/2000/svg">
<g clip-path="url(#clip0_225_245)">
<path d="M71.1667 40.6667H23.7223C22.8235 40.6667 21.9615 40.3096 21.326 39.6741C20.6904 39.0386 20.3334 38.1766 20.3334 37.2778V23.7222C20.3334 22.8234 20.6904 21.9615 21.326 21.3259C21.9615 20.6904 22.8235 20.3333 23.7223 20.3333H71.1667C72.0655 20.3333 72.9275 20.6904 73.563 21.3259C74.1986 21.9615 74.5556 22.8234 74.5556 23.7222V37.2778C74.5556 38.1766 74.1986 39.0386 73.563 39.6741C72.9275 40.3096 72.0655 40.6667 71.1667 40.6667ZM27.1112 33.8889H67.7778V26.9078H27.1112V33.8889Z" fill="#DE4238"/>
<path d="M71.1667 47.7155H23.7223C22.8235 47.7155 21.9615 48.0726 21.326 48.7081C20.6904 49.3437 20.3334 50.2056 20.3334 51.1044V64.3889C20.3334 65.2877 20.6904 66.1496 21.326 66.7852C21.9615 67.4207 22.8235 67.7778 23.7223 67.7778H62.22L74.5556 55.2389V51.1044C74.5556 50.2056 74.1986 49.3437 73.563 48.7081C72.9275 48.0726 72.0655 47.7155 71.1667 47.7155ZM67.7778 61H27.1112V54.2222H67.7778V61Z" fill="#DE4238"/>
<path d="M37.4812 106.784V106.581L38.5656 101.87H13.5556V13.5555H81.3334V48.2917L88.1112 41.8867V10.1667C88.1112 9.26787 87.7541 8.40589 87.1186 7.77035C86.483 7.13481 85.6211 6.77777 84.7223 6.77777H10.1667C9.26793 6.77777 8.40595 7.13481 7.77041 7.77035C7.13487 8.40589 6.77783 9.26787 6.77783 10.1667V105.056C6.77783 105.954 7.13487 106.816 7.77041 107.452C8.40595 108.087 9.26793 108.444 10.1667 108.444H37.2778C37.3053 107.887 37.3732 107.332 37.4812 106.784Z" fill="#DE4238"/>
<path d="M74.5556 64.965L71.9122 67.6422C72.568 67.507 73.1691 67.1806 73.6395 66.7041C74.11 66.2276 74.4287 65.6225 74.5556 64.965Z" fill="#DE4238"/>
<path d="M20.3334 91.2967C20.3334 92.1954 20.6904 93.0574 21.326 93.693C21.9615 94.3285 22.8235 94.6855 23.7223 94.6855H40.1245L41.1412 90.28L41.5817 88.4161V88.2467H27.1112V81.3333H48.5967L55.3745 74.5555H23.7223C22.8235 74.5555 21.9615 74.9126 21.326 75.5481C20.6904 76.1837 20.3334 77.0456 20.3334 77.9444V91.2967Z" fill="#DE4238"/>
<path d="M113.494 56.4928L102.073 45.0722C101.566 44.564 100.964 44.1608 100.301 43.8856C99.6385 43.6105 98.9277 43.4689 98.21 43.4689C97.4922 43.4689 96.7815 43.6105 96.1186 43.8856C95.4556 44.1608 94.8535 44.564 94.3466 45.0722L47.885 91.805L44.0555 108.106C43.9122 108.809 43.9089 109.533 44.046 110.238C44.1832 110.942 44.4579 111.613 44.8546 112.211C45.2512 112.809 45.762 113.323 46.3576 113.723C46.9532 114.124 47.6219 114.403 48.3255 114.544C48.6749 114.578 49.0267 114.578 49.3761 114.544C49.7915 114.609 50.2145 114.609 50.63 114.544L67.0661 110.918L113.494 64.3889C114.001 63.8849 114.404 63.2857 114.678 62.6255C114.953 61.9654 115.094 61.2575 115.094 60.5425C115.094 59.8275 114.953 59.1196 114.678 58.4595C114.404 57.7993 114.001 57.2001 113.494 56.6961V56.4928ZM63.6094 104.751L51.2061 107.496L54.2222 95.1939L89.06 59.9833L98.6166 69.54L63.6094 104.751ZM102.446 65.7105L92.8894 56.1539L98.2778 50.8333L107.902 60.4578L102.446 65.7105Z" fill="#DE4238"/>
</g>
<defs>
<clipPath id="clip0_225_245">
<rect width="122" height="122" fill="white"/>
</clipPath>
</defs>
</svg>
