<svg width="33" height="37" viewBox="0 0 33 37" fill="none" xmlns="http://www.w3.org/2000/svg">
<path d="M31.8544 17.5051C31.9851 17.6357 32.0889 17.7908 32.1596 17.9615C32.2304 18.1322 32.2668 18.3152 32.2668 18.5C32.2668 18.6848 32.2304 18.8678 32.1596 19.0385C32.0889 19.2092 31.9851 19.3643 31.8544 19.4949L17.4315 33.909C15.5852 35.7551 13.081 36.7922 10.47 36.792C7.85896 36.7919 5.35495 35.7545 3.50879 33.9081C1.66263 32.0617 0.625568 29.5576 0.625732 26.9465C0.625897 24.3355 1.66328 21.8315 3.50967 19.9853L20.9577 2.28066C22.2759 0.961079 24.0643 0.219191 25.9295 0.218202C27.7947 0.217213 29.5838 0.957205 30.9034 2.27539C32.223 3.59357 32.9649 5.38197 32.9659 7.24715C32.9669 9.11233 32.2269 10.9015 30.9087 12.2211L13.4571 29.9258C12.6646 30.7183 11.5897 31.1636 10.4688 31.1636C9.34803 31.1636 8.27311 30.7183 7.48057 29.9258C6.68803 29.1332 6.24278 28.0583 6.24278 26.9375C6.24278 25.8167 6.68803 24.7418 7.48057 23.9492L22.1231 9.0746C22.2514 8.93777 22.4058 8.82798 22.5771 8.75169C22.7484 8.6754 22.9333 8.63416 23.1208 8.63038C23.3083 8.62661 23.4947 8.66038 23.669 8.72972C23.8432 8.79905 24.0019 8.90254 24.1355 9.0341C24.2692 9.16566 24.3752 9.32263 24.4473 9.49577C24.5194 9.66891 24.5561 9.85472 24.5553 10.0423C24.5546 10.2298 24.5163 10.4153 24.4427 10.5878C24.3691 10.7604 24.2618 10.9164 24.1271 11.0469L9.48272 25.9373C9.3516 26.0674 9.24739 26.222 9.17603 26.3924C9.10467 26.5627 9.06757 26.7455 9.06683 26.9301C9.0661 27.1148 9.10175 27.2979 9.17175 27.4688C9.24175 27.6397 9.34473 27.7952 9.4748 27.9263C9.60488 28.0574 9.75951 28.1616 9.92986 28.233C10.1002 28.3043 10.283 28.3414 10.4676 28.3422C10.6523 28.3429 10.8354 28.3072 11.0063 28.2372C11.1772 28.1672 11.3327 28.0643 11.4638 27.9342L28.9136 10.2383C29.7061 9.44737 30.152 8.37402 30.1532 7.25435C30.1543 6.13468 29.7106 5.06041 28.9197 4.26787C28.1288 3.47533 27.0555 3.02943 25.9358 3.02828C24.8161 3.02713 23.7419 3.47081 22.9493 4.26172L5.50479 21.9594C4.85128 22.6118 4.33269 23.3866 3.97861 24.2395C3.62454 25.0924 3.44192 26.0067 3.44119 26.9301C3.44045 27.8536 3.62162 28.7682 3.97433 29.6216C4.32705 30.4751 4.84441 31.2507 5.49688 31.9042C6.14934 32.5577 6.92414 33.0763 7.77702 33.4304C8.62991 33.7844 9.54419 33.9671 10.4676 33.9678C11.3911 33.9685 12.3057 33.7874 13.1591 33.4347C14.0126 33.0819 14.7882 32.5646 15.4417 31.9121L29.8663 17.498C30.1309 17.2355 30.489 17.0887 30.8618 17.09C31.2346 17.0913 31.5916 17.2406 31.8544 17.5051Z" fill="#DE4238"/>
</svg>
