<svg width="1987" height="1096" viewBox="0 0 1987 1096" fill="none" xmlns="http://www.w3.org/2000/svg">
<rect x="18" y="72" width="1939" height="1024" fill="white"/>
<path d="M280.807 560.96C109.511 524.93 42.8956 514.589 31 513.921V7.00574L1966.84 0C1969.98 166.637 1974.38 502.712 1966.84 513.921C1957.41 527.933 1891.42 573.47 1698.18 587.482C1504.93 601.493 1234.25 513.921 1059.85 513.921C885.461 513.921 494.927 605.997 280.807 560.96Z" fill="url(#paint0_linear_288_242)"/>
<path d="M1716.72 595.96C1890.4 559.93 1957.94 549.589 1970 548.921V42.0057L7.22192 35C4.03601 201.637 -0.424316 537.712 7.22192 548.921C16.7798 562.933 83.6849 608.47 279.621 622.482C475.558 636.493 750.005 548.921 926.826 548.921C1103.65 548.921 1499.62 640.997 1716.72 595.96Z" fill="url(#paint1_linear_288_242)"/>
<path d="M913.301 551.198C660.679 440.357 201.175 484.674 3 520.687V15H1952.2C1978.46 215.408 2015.22 617.723 1952.2 623.725C1873.43 631.228 1932.68 482.673 1707.8 467.167C1482.91 451.662 1229.08 689.75 913.301 551.198Z" fill="url(#paint2_linear_288_242)"/>
<path d="M1059.09 654.198C1308.27 543.357 1761.52 587.674 1957 623.687V118H34.3235C8.42224 318.408 -27.8397 720.723 34.3235 726.725C112.028 734.228 53.5835 585.673 275.405 570.167C497.227 554.662 747.607 792.75 1059.09 654.198Z" fill="url(#paint3_linear_288_242)"/>
<path d="M877.763 520.208C432.646 564.63 140.241 542.052 0 534.215V117.006L1970 105V552.224C1930.94 570.733 1958.35 583.039 1832.27 552.224C1674.67 513.705 1434.16 464.68 877.763 520.208Z" fill="url(#paint4_linear_288_242)"/>
<path d="M732.312 543.466C445.504 527.067 135.933 524.301 3 524.967V24H1969V524.967C1948.29 519.967 1832.29 516.668 1534.01 543.466C1161.16 576.964 1090.82 563.965 732.312 543.466Z" fill="url(#paint5_linear_288_242)"/>
<path d="M251.76 646.271C251.699 627.17 251.465 592.292 251.241 568.764C250.863 529.078 250.671 525.502 248.587 519.312C244.895 508.351 233.61 488.265 226.07 479.238C214.428 465.299 208.624 450.604 203.345 421.698C201.811 413.296 200.3 405.6 199.988 404.595C199.593 403.322 200.18 402.623 201.922 402.289C204.208 401.851 204.175 401.797 201.538 401.661C197.216 401.439 191.884 394.871 191.866 389.746C191.858 387.517 190.392 381.519 188.608 376.418C186.825 371.318 185.359 366.485 185.351 365.68C185.343 364.874 187.913 366.546 191.063 369.393C194.212 372.242 206.115 382.79 217.513 392.834C228.911 402.878 239.955 412.91 242.054 415.128C251.35 424.949 262.223 426.431 276.215 419.784C290.771 412.869 298.846 403.153 297.224 394.505L296.55 390.912L305.688 390.343C318.161 389.564 326.32 385.857 334.127 377.422C341.809 369.123 343.492 364.028 343.492 349.082C343.492 339.556 343.825 337.132 345.295 335.91C347.306 334.24 352.7 334.135 369.125 335.447C380.889 336.386 390.856 334.739 399.349 330.454C404.477 327.866 404.271 327.824 405.107 331.634C405.496 333.406 406.819 336.132 408.045 337.692C409.272 339.252 410.097 340.657 409.878 340.813C409.659 340.969 406.291 342.479 402.392 344.168C360.616 362.262 331.172 389.153 323.923 415.833C319.938 430.498 318.409 443.731 318.519 462.613C318.672 488.998 319.612 489.474 323.175 464.969C328.634 427.417 333.612 410.5 343.597 395.565C355.878 377.198 377.1 363.02 412.208 349.725C419.707 346.886 426.031 344.382 426.26 344.162C426.49 343.941 425.137 342.004 423.253 339.858C418.84 334.831 413.542 324.313 412.668 318.847L411.985 314.572L405.74 317.096C390.252 323.354 364.051 324.745 354.088 319.84C347.477 316.584 337.652 307.648 334.264 301.809C331.326 296.746 329.859 290.389 330.883 287.162C331.689 284.619 341.255 279.409 359.336 271.665C368.436 267.768 373.752 264.747 377.245 261.49C385.069 254.195 391.338 250.347 407.996 242.618C430.974 231.956 439.236 229.609 445.426 231.984C447.636 232.832 454.927 243.047 462.458 255.845C465.632 261.239 478.825 281.615 491.775 301.124C514.378 335.175 518.022 341.789 518 348.723C517.987 354.277 499.889 389.521 482.334 418.197C465.131 446.298 446.898 471.073 425.893 494.889C419.549 502.083 414.419 508.867 414.412 510.075C414.405 511.274 415.112 516.676 415.982 522.076C420.924 552.733 432.879 636.51 432.383 637.007C431.909 637.481 414.947 641.73 383.85 649.163C373.952 651.529 341.802 659.316 312.407 666.468C283.012 673.621 257.366 679.816 255.416 680.236L251.872 681L251.76 646.271ZM327.052 580.326C325.35 557.602 324.863 545.675 325.557 543.704C327.42 538.41 337.237 537.826 339.163 542.896C339.694 544.293 342.14 556.94 344.599 571.001C347.057 585.061 349.489 597.972 350.004 599.69L350.941 602.815L351.056 599.542C351.121 597.741 350.116 584.169 348.826 569.38C347.536 554.591 346.813 540.715 347.221 538.543C347.772 535.604 349.757 532.877 354.989 527.872C358.855 524.174 361.845 520.976 361.634 520.764C361.422 520.553 356.838 521.858 351.446 523.665C335.682 528.948 327.996 529.669 309.616 527.59C300.953 526.609 293.007 525.549 291.957 525.233C287.851 523.994 290.41 526.964 297.956 532.196C312.218 542.085 313.228 543.496 315.694 556.99C316.681 562.391 319.904 577.674 322.856 590.952C325.808 604.231 328.262 615.523 328.31 616.047C328.361 616.57 328.661 616.33 328.987 615.512C329.312 614.694 328.44 598.86 327.052 580.326ZM255.414 408.846C249.154 406.473 230.972 392.578 218.612 380.722C212.008 374.388 202.113 365.667 196.622 361.343C185.982 352.965 180.941 346.447 178.781 338.277C174.831 323.336 186.24 309.109 204.598 306.088C210.812 305.064 213.775 306.843 223.005 317.13C230.558 325.55 272.725 372.934 280.015 381.195C283.482 385.124 283.714 385.846 283.262 391.298C282.895 395.726 281.978 398.155 279.536 401.174C273.63 408.472 263.188 411.794 255.414 408.846ZM301.499 380.887C292.08 378.497 288.124 374.88 251.475 335.142C211.96 292.295 212.89 293.417 212.003 287.503C210.919 280.272 212.35 271.472 215.676 264.906C220.284 255.812 231.587 249.862 244.236 249.871C257.921 249.882 269.808 259.909 287.55 286.405C293.697 295.586 304.528 309.625 312.219 318.381C328.022 336.372 330.652 341.444 330.718 354.051C330.757 362.553 328.199 369.824 323.735 373.862C317.552 379.454 307.888 382.507 301.499 380.887ZM326.852 317.228C322.749 312.878 315.857 304.584 311.536 298.799C295.017 276.68 285.938 264.607 277.754 253.876C267.707 240.701 264.768 233.788 264.682 223.124C264.605 214 266.808 208.996 273.868 202.226C283.079 193.394 294.241 189.762 305.416 191.961C312.864 193.427 320.553 197.469 324.248 201.86C327.451 205.669 352.801 247.786 357.433 256.997L360.751 263.595L355.121 265.571C339.284 271.132 323.851 279.888 321.748 284.506C319.973 288.402 320.401 294.619 322.81 299.931C325.377 305.589 333.339 316.939 337.375 320.691C340.993 324.055 340.966 325.138 337.272 325.138C335.019 325.138 332.544 323.263 326.852 317.228ZM366.637 251.263C362.173 244.65 341.781 210.387 338.72 204.357C334.359 195.765 338.001 182.05 346.733 174.175C362.305 160.132 384.176 162.445 397.047 179.498C400.975 184.703 422.653 228.86 421.732 229.781C421.51 230.003 413.064 234.15 402.96 238.997C392.857 243.845 381.511 250.01 377.747 252.697L370.903 257.582L366.637 251.263Z" fill="white"/>
<defs>
<linearGradient id="paint0_linear_288_242" x1="1001" y1="0" x2="1001" y2="589" gradientUnits="userSpaceOnUse">
<stop stop-color="#DE4238"/>
<stop offset="1" stop-color="#DE4238" stop-opacity="0.15"/>
</linearGradient>
<linearGradient id="paint1_linear_288_242" x1="986.5" y1="35" x2="986.5" y2="624" gradientUnits="userSpaceOnUse">
<stop stop-color="#DE4238"/>
<stop offset="1" stop-color="#DE4238" stop-opacity="0.15"/>
</linearGradient>
<linearGradient id="paint2_linear_288_242" x1="995" y1="15" x2="995" y2="624" gradientUnits="userSpaceOnUse">
<stop stop-color="#DE4238"/>
<stop offset="1" stop-color="#DE4238" stop-opacity="0.15"/>
</linearGradient>
<linearGradient id="paint3_linear_288_242" x1="978.5" y1="118" x2="978.5" y2="727" gradientUnits="userSpaceOnUse">
<stop stop-color="#DE4238"/>
<stop offset="1" stop-color="#DE4238" stop-opacity="0.15"/>
</linearGradient>
<linearGradient id="paint4_linear_288_242" x1="985" y1="105" x2="985" y2="571" gradientUnits="userSpaceOnUse">
<stop stop-color="#DE4238"/>
<stop offset="1" stop-color="#DE4238" stop-opacity="0.15"/>
</linearGradient>
<linearGradient id="paint5_linear_288_242" x1="986" y1="24" x2="986" y2="564" gradientUnits="userSpaceOnUse">
<stop stop-color="#DE4238"/>
<stop offset="1" stop-color="#DE4238" stop-opacity="0.15"/>
</linearGradient>
</defs>
</svg>
